<!DOCTYPE svg PUBLIC "-//W3C//DTD SVG 1.1//EN" "http://www.w3.org/Graphics/SVG/1.1/DTD/svg11.dtd">

<!-- Uploaded to: SVG Repo, www.svgrepo.com, Transformed by: SVG Repo Mixer Tools -->
<svg fill="#e22a1d" width="800px" height="800px" viewBox="0 0 512 512" xmlns="http://www.w3.org/2000/svg" stroke="#e22a1d">

    <g id="SVGRepo_bgCarrier" stroke-width="0"/>

    <g id="SVGRepo_tracerCarrier" stroke-linecap="round" stroke-linejoin="round"/>

    <g id="SVGRepo_iconCarrier">
        <g id="Christian_cross">
            <path d="M400.7618,150.7H308.65V58.5925A13.1915,13.1915,0,0,0,295.4618,45.4H216.5425A13.1952,13.1952,0,0,0,203.35,58.5925V150.7H111.2425A13.1952,13.1952,0,0,0,98.05,163.8925v78.9193A13.1915,13.1915,0,0,0,111.2425,256H203.35V453.4118A13.1915,13.1915,0,0,0,216.5425,466.6h78.9193A13.1879,13.1879,0,0,0,308.65,453.4118V256h92.1118A13.1879,13.1879,0,0,0,413.95,242.8118V163.8925A13.1915,13.1915,0,0,0,400.7618,150.7ZM361.3,216.5125H269.1625V413.95a13.1625,13.1625,0,0,1-26.325,0V216.5125H150.7a13.1625,13.1625,0,1,1,0-26.325h92.1375V98.05a13.1625,13.1625,0,0,1,26.325,0v92.1375H361.3a13.1625,13.1625,0,0,1,0,26.325Z"/>
        </g>
    </g>

</svg>
